<svg xmlns="http://www.w3.org/2000/svg" width="60" height="60" viewBox="0 0 60 60"><g style="isolation:isolate"><path d="M1389.308,521.686a30,30,0,1,0-34.688,29.635V530.358H1347v-8.672h7.617v-6.609c0-7.519,4.479-11.672,11.332-11.672a46.124,46.124,0,0,1,6.715.586v7.382h-3.783c-3.727,0-4.889,2.313-4.889,4.685v5.628h8.321l-1.331,8.672h-6.99v20.963A30.007,30.007,0,0,0,1389.308,521.686Z" transform="translate(-1329.308 -491.686)" fill="#8a754e"/><path d="M1370.985,530.358l1.331-8.672h-8.321v-5.628c0-2.372,1.162-4.685,4.889-4.685h3.783v-7.382a46.124,46.124,0,0,0-6.715-.586c-6.853,0-11.332,4.153-11.332,11.672v6.609H1347v8.672h7.617v20.963a30.283,30.283,0,0,0,9.375,0V530.358Z" transform="translate(-1329.308 -491.686)" fill="#fff"/></g></svg>