<svg xmlns="http://www.w3.org/2000/svg" width="60" height="60" viewBox="0 0 60 60"><g style="isolation:isolate"><circle cx="30" cy="30" r="30" fill="#afda38"/><g transform="translate(-1329.308 -568.179)"><path d="M1379.655,596.627c0-9.148-9.171-16.591-20.445-16.591s-20.444,7.443-20.444,16.591c0,8.2,7.273,15.07,17.1,16.369.666.144,1.572.439,1.8,1.008a4.2,4.2,0,0,1,.066,1.849s-.24,1.442-.292,1.75c-.089.517-.41,2.021,1.771,1.1s11.774-6.933,16.063-11.87h0c2.963-3.249,4.383-6.546,4.383-10.208" fill="#fff"/><path d="M1355.056,592.207h-1.434a.4.4,0,0,0-.4.4v8.908a.4.4,0,0,0,.4.4h1.434a.4.4,0,0,0,.4-.4V592.6a.4.4,0,0,0-.4-.4" fill="#afda38"/><path d="M1364.927,592.207h-1.434a.4.4,0,0,0-.4.4V597.9l-4.083-5.513a.311.311,0,0,0-.031-.041l0,0-.024-.025-.008-.007-.021-.017-.01-.009-.021-.014-.012-.007-.021-.012-.013-.006-.023-.01-.013,0-.023-.008-.014,0-.023-.006-.017,0-.021,0-.02,0h-1.448a.4.4,0,0,0-.4.4v8.908a.4.4,0,0,0,.4.4h1.434a.4.4,0,0,0,.4-.4v-5.29l4.088,5.52a.391.391,0,0,0,.1.1l0,0,.024.015.012.006.019.01.019.008.012,0,.027.009h.006a.379.379,0,0,0,.1.014h1.434a.4.4,0,0,0,.4-.4V592.6a.4.4,0,0,0-.4-.4" fill="#afda38"/><path d="M1351.6,599.679h-3.9V592.6a.4.4,0,0,0-.4-.4h-1.434a.4.4,0,0,0-.4.4v8.908h0a.393.393,0,0,0,.111.275l.005.006.006.006a.4.4,0,0,0,.275.111h5.73a.4.4,0,0,0,.4-.4v-1.435a.4.4,0,0,0-.4-.4" fill="#afda38"/><path d="M1372.846,594.437a.4.4,0,0,0,.4-.4V592.6a.4.4,0,0,0-.4-.4h-5.729a.4.4,0,0,0-.276.112l0,0-.006.007a.4.4,0,0,0-.111.275h0v8.907h0a.393.393,0,0,0,.112.275l.005.006.006.006a.4.4,0,0,0,.275.111h5.729a.4.4,0,0,0,.4-.4v-1.434a.4.4,0,0,0-.4-.4h-3.9v-1.506h3.9a.4.4,0,0,0,.4-.4v-1.434a.4.4,0,0,0-.4-.4h-3.9v-1.506Z" fill="#afda38"/></g></g></svg>