<svg xmlns="http://www.w3.org/2000/svg" width="32" height="32" viewBox="0 0 32 32"><g transform="translate(-1163.088 -167.822)"><circle cx="16" cy="16" r="16" transform="translate(1163.088 167.822)" fill="#fff"/><rect width="18.824" height="19.79" rx="3.017" transform="translate(1169.676 172.745)" fill="none" stroke="#718391" stroke-linejoin="round" stroke-width="1"/><line x2="8.274" transform="translate(1174.858 189.364)" fill="none" stroke="#718391" stroke-linecap="round" stroke-linejoin="round" stroke-width="1"/><rect width="18.824" height="6.518" transform="translate(1169.676 178.114)" fill="none" stroke="#718391" stroke-linejoin="round" stroke-width="1"/><path d="M1169.676,187.131h4.4l1.086,2.233h-5.345" fill="none" stroke="#718391" stroke-linecap="round" stroke-linejoin="round" stroke-width="1"/><path d="M1188.5,187.131h-4.4l-1.086,2.233h5.345" fill="none" stroke="#718391" stroke-linecap="round" stroke-linejoin="round" stroke-width="1"/><rect width="12.429" height="1.404" rx="0.702" transform="translate(1172.874 174.818)" fill="none" stroke="#718391" stroke-linejoin="round" stroke-width="1"/><rect width="2.359" height="3.997" transform="translate(1167.316 180.641)" fill="none" stroke="#718391" stroke-linejoin="round" stroke-width="1"/><rect width="2.359" height="3.997" transform="translate(1188.5 180.641)" fill="none" stroke="#718391" stroke-linejoin="round" stroke-width="1"/><path d="M0,0H2.725a0,0,0,0,1,0,0V2.07A1.363,1.363,0,0,1,1.363,3.432h0A1.363,1.363,0,0,1,0,2.07V0A0,0,0,0,1,0,0Z" transform="translate(1171.803 192.534)" fill="none" stroke="#718391" stroke-linejoin="round" stroke-width="1"/><path d="M0,0H2.725a0,0,0,0,1,0,0V2.07A1.363,1.363,0,0,1,1.363,3.432h0A1.363,1.363,0,0,1,0,2.07V0A0,0,0,0,1,0,0Z" transform="translate(1183.648 192.534)" fill="none" stroke="#718391" stroke-linejoin="round" stroke-width="1"/></g></svg>