<svg xmlns="http://www.w3.org/2000/svg" width="1240.304" height="896.929"><defs><clipPath id="a"><path data-name="Path 161" d="M2616.461-76.685c-116.408 8.275-232.77 30.324-333.775 83.348-51.009 26.777-98.662 62.488-128.309 112.192-46.478 77.928-56.191 183.891-24.582 268.32 29.757 79.474 97.963 117.972 182.458 122.525 104.4 5.623 210.053-1.476 311.944-25.3 50.833-11.883 101.574-27.545 149.1-48.97 96.526-43.513 202.849-43.87 303.632-72.033 50.859-14.212 92.384-38.463 127.094-77.874 53.37-60.6 62.813-152.308 27.456-224.378-46.747-95.282-158.222-116.993-255.459-130.9-117.512-16.794-241.286-15.34-359.559-6.93z" transform="translate(-2111.397 82.784)" fill="none"/></clipPath></defs><g data-name="Group 2319"><g data-name="Group 107"><g data-name="Group 106" transform="translate(55.394 153.005)" clip-path="url(#a)"><path data-name="Path 160" d="M505.064 6.099c-116.408 8.275-232.77 30.324-333.775 83.348-51.009 26.777-98.662 62.488-128.309 112.192-46.478 77.928-56.191 183.891-24.582 268.32 29.757 79.474 97.963 117.972 182.458 122.525 104.4 5.623 210.053-1.476 311.944-25.3 50.833-11.883 101.574-27.545 149.1-48.97 96.526-43.513 202.849-43.87 303.632-72.033 50.859-14.212 92.384-38.463 127.094-77.874 53.37-60.6 62.813-152.308 27.456-224.378-46.747-95.282-158.222-116.993-255.459-130.9-117.512-16.794-241.286-15.34-359.559-6.93z" fill="#30a997"/><text data-name="星期一" transform="translate(295.519 118.766)" fill="#fff" font-size="24" font-family="YuGothicUI-Regular, Yu Gothic UI" style="mix-blend-mode:normal;isolation:isolate"><tspan x="0" y="0">星期一</tspan></text><text data-name="星期二" transform="translate(428.519 118.766)" fill="#fff" font-size="24" font-family="YuGothicUI-Regular, Yu Gothic UI" style="mix-blend-mode:normal;isolation:isolate"><tspan x="0" y="0">星期二</tspan></text><text data-name="星期三" transform="translate(561.519 118.766)" fill="#fff" font-size="24" font-family="YuGothicUI-Regular, Yu Gothic UI" style="mix-blend-mode:normal;isolation:isolate"><tspan x="0" y="0">星期三</tspan></text><text data-name="星期四" transform="translate(695.519 118.766)" fill="#fff" font-size="24" font-family="YuGothicUI-Regular, Yu Gothic UI" style="mix-blend-mode:normal;isolation:isolate"><tspan x="0" y="0">星期四</tspan></text><text data-name="星期五" transform="translate(828.519 118.766)" fill="#fff" font-size="24" font-family="YuGothicUI-Regular, Yu Gothic UI" style="mix-blend-mode:normal;isolation:isolate"><tspan x="0" y="0">星期五</tspan></text><text data-name="星期六" transform="translate(961.519 118.766)" fill="#fff" font-size="24" font-family="YuGothicUI-Regular, Yu Gothic UI" style="mix-blend-mode:normal;isolation:isolate"><tspan x="0" y="0">星期六</tspan></text><path data-name="直线 18" fill="none" stroke="#fff" stroke-width="1.014" d="M9.917 153.545h1173.028"/><path data-name="直线 19" fill="none" stroke="#fff" stroke-width="1.014" d="M-18.186 286.67h1173.028"/><path data-name="直线 20" fill="none" stroke="#fff" stroke-width="1.014" d="M-18.186 419.2h1172.417"/><circle data-name="椭圆 20" cx="14" cy="14" transform="translate(318.019 206.872)" fill="#fff" stroke="#fff" r="14"/><circle data-name="椭圆 21" cx="14" cy="14" transform="translate(451.019 206.872)" fill="#fff" stroke="#fff" r="14"/><circle data-name="椭圆 22" cx="14" cy="14" transform="translate(718.019 206.872)" fill="#fff" stroke="#fff" r="14"/><circle data-name="椭圆 25" cx="14" cy="14" transform="translate(718.019 339.504)" fill="#fff" stroke="#fff" r="14"/><circle data-name="椭圆 27" cx="14" cy="14" transform="translate(851.019 339.504)" fill="#fff" stroke="#fff" r="14"/><circle data-name="椭圆 26" cx="14" cy="14" transform="translate(584.019 339.504)" fill="#fff" stroke="#fff" r="14"/><circle data-name="椭圆 28" cx="14" cy="14" transform="translate(584.019 472.83)" fill="#fff" stroke="#fff" r="14"/><circle data-name="椭圆 23" cx="14" cy="14" transform="translate(984.019 206.872)" fill="#fff" stroke="#fff" r="14"/><path data-name="多边形 2" d="M332.019 341.508l14 23.333h-28z" fill="#fff" stroke="#fff" stroke-linecap="round" stroke-linejoin="round" stroke-width="3"/><path data-name="多边形 3" d="M865.019 208.876l14 23.333h-28z" fill="#fff" stroke="#fff" stroke-linecap="round" stroke-linejoin="round" stroke-width="3"/><g data-name="上午 09:00-12:00" style="mix-blend-mode:normal;isolation:isolate" fill="#fff" font-size="24"><text transform="translate(92.038 209.186)" font-family="YuGothicUI-Regular, Yu Gothic UI" style="mix-blend-mode:normal;isolation:isolate"><tspan x="0" y="0">上午</tspan></text><text data-name="09:00-12:00" transform="translate(92.038 251.976)" font-family="SegoeUI, Segoe UI" style="mix-blend-mode:normal;isolation:isolate"><tspan x="0" y="0">09:00-12:00</tspan></text></g><g data-name="下午 14:00-17:00" style="mix-blend-mode:normal;isolation:isolate" fill="#fff" font-size="24"><text transform="translate(92.038 342.311)" font-family="YuGothicUI-Regular, Yu Gothic UI" style="mix-blend-mode:normal;isolation:isolate"><tspan x="0" y="0">下午</tspan></text><text data-name="14:00-17:00" transform="translate(92.038 385.101)" font-family="SegoeUI, Segoe UI" style="mix-blend-mode:normal;isolation:isolate"><tspan x="0" y="0">14:00-17:00</tspan></text></g><g data-name="晚上 18:00-21:00" style="mix-blend-mode:normal;isolation:isolate" fill="#fff" font-size="24"><text transform="translate(92.038 475.435)" font-family="YuGothicUI-Regular, Yu Gothic UI" style="mix-blend-mode:normal;isolation:isolate"><tspan x="0" y="0">晚上</tspan></text><text data-name="18:00-21:00" transform="translate(92.038 518.225)" font-family="SegoeUI, Segoe UI" style="mix-blend-mode:normal;isolation:isolate"><tspan x="0" y="0">18:00-21:00</tspan></text></g></g></g><path data-name="Path 162" d="M644.285 151.418c-110.829-25.23-225.641-37.276-335.21-15.328-55.333 11.084-110.152 31.667-152.294 70.758C90.713 268.136 50.686 366.704 55.44 456.443c4.481 84.476 56.741 140.71 134.097 169.12 95.583 35.103 196.051 58.396 297.907 64.624 50.811 3.108 102.648 2.579 153.173-4.378 102.615-14.13 201.737 15.801 303.83 17.564 51.518.89 97.282-10.479 141.128-38.284 67.421-42.757 103.028-127.769 91.171-206.757-15.672-104.422-113.143-156.925-199.631-197.905-104.528-49.526-220.224-83.376-332.83-109.009z" fill="none" stroke="rgba(48,169,151,0.4)" stroke-width="3"/></g></svg>