<svg xmlns="http://www.w3.org/2000/svg" width="32" height="32" viewBox="0 0 32 32"><g transform="translate(-1022.043 -162.114)"><circle cx="16" cy="16" r="16" transform="translate(1022.043 162.114)" fill="#fff"/><path d="M1027.6,172.432l11.066-7.492L1046.5,178.4l-11.9,7.147Z" fill="none" stroke="#a89374" stroke-linecap="round" stroke-linejoin="round" stroke-width="1"/><path d="M1027.6,172.432c-1.358,1.04-.414,3.892-.414,3.892l7.082,13.559s-1.762-2.795.564-4.424" fill="none" stroke="#a89374" stroke-linecap="round" stroke-linejoin="round" stroke-width="1"/><path d="M1034.268,189.883l13.39-2.49-.943-1.4" fill="none" stroke="#a89374" stroke-linejoin="round" stroke-width="1"/><path d="M1045.344,179.094l1.54,2.3-12.9,5.07" fill="none" stroke="#a89374" stroke-linecap="round" stroke-linejoin="round" stroke-width="1"/><path d="M1046.135,181.5l1.789,2.054-14.269,4.127" fill="none" stroke="#a89374" stroke-linejoin="round" stroke-width="1"/><path d="M1046.425,183.743l1.789,2.054-14.409,3.048" fill="none" stroke="#a89374" stroke-linejoin="round" stroke-width="1"/><path d="M1033.6,188.162s.632,1.4,1.317,1.637" fill="none" stroke="#a89374" stroke-linejoin="round" stroke-width="1"/></g></svg>