<svg xmlns="http://www.w3.org/2000/svg" width="32" height="32" viewBox="0 0 32 32"><g transform="translate(-1131.088 -180.641)"><circle cx="16" cy="16" r="16" transform="translate(1131.088 180.641)" fill="#fff"/><path d="M1156.629,205.505l-7.6-7.6a.9.9,0,0,0-1.276,1.276l5.137,5.136h-11.612l5.137-5.136a.9.9,0,0,0-1.275-1.276l-7.6,7.6a.9.9,0,0,0,1.276,1.276l.974-.974h14.582l.974.974a.9.9,0,1,0,1.276-1.276Z" fill="none" stroke="#718391" stroke-linejoin="round" stroke-width="1"/><rect width="16.552" height="17.401" rx="2.653" transform="translate(1138.734 185.17)" fill="#fff" stroke="#718391" stroke-linejoin="round" stroke-width="1"/><circle cx="1.592" cy="1.592" r="1.592" transform="translate(1140.604 197.796)" fill="none" stroke="#718391" stroke-linejoin="round" stroke-width="1"/><circle cx="1.592" cy="1.592" r="1.592" transform="translate(1150.233 197.796)" fill="none" stroke="#718391" stroke-linejoin="round" stroke-width="1"/><line x2="3.501" transform="translate(1145.259 198.061)" fill="none" stroke="#718391" stroke-linejoin="round" stroke-width="1"/><line x2="3.501" transform="translate(1145.259 199.388)" fill="none" stroke="#718391" stroke-linejoin="round" stroke-width="1"/><line x2="3.501" transform="translate(1145.259 200.714)" fill="none" stroke="#718391" stroke-linejoin="round" stroke-width="1"/><rect width="12.828" height="8.59" rx="1.191" transform="translate(1140.596 187.027)" fill="none" stroke="#718391" stroke-linejoin="round" stroke-width="1"/></g></svg>