<svg xmlns="http://www.w3.org/2000/svg" width="32" height="32" viewBox="0 0 32 32"><g transform="translate(-1078.192 -147.76)"><circle cx="16" cy="16" r="16" transform="translate(1078.192 147.76)" fill="#fff"/><line x1="21.286" transform="translate(1083.549 172.577)" fill="none" stroke="#a89374" stroke-linecap="round" stroke-linejoin="round" stroke-width="1"/><path d="M1106.4,160.5a3.18,3.18,0,0,0-3.012-3.171,3.194,3.194,0,1,0-6.039-.411,3.683,3.683,0,0,0-1.838,6.075,3.153,3.153,0,0,0-.472,1.648,3.189,3.189,0,0,0,3.189,3.189,3.145,3.145,0,0,0,.781-.108,3.688,3.688,0,0,0,5.843-4.5A3.176,3.176,0,0,0,1106.4,160.5Z" fill="none" stroke="#a89374" stroke-linecap="round" stroke-linejoin="round" stroke-width="1"/><line y1="13.973" transform="translate(1100.471 158.603)" fill="none" stroke="#a89374" stroke-linecap="round" stroke-linejoin="round" stroke-width="1"/><path d="M1098.325,162.112l1.942,1.942,3.552-3.552" fill="none" stroke="#a89374" stroke-linecap="round" stroke-linejoin="round" stroke-width="1"/><rect width="9.569" height="1.513" transform="translate(1083.549 168.661)" fill="none" stroke="#a89374" stroke-linecap="round" stroke-linejoin="round" stroke-width="1"/><rect width="9.569" height="3.272" transform="translate(1083.549 163.76)" fill="none" stroke="#a89374" stroke-linecap="round" stroke-linejoin="round" stroke-width="1"/><rect width="1.522" height="2.402" transform="translate(1084.326 170.175)" fill="none" stroke="#a89374" stroke-linecap="round" stroke-linejoin="round" stroke-width="1"/><rect width="1.522" height="2.402" transform="translate(1090.818 170.175)" fill="none" stroke="#a89374" stroke-linecap="round" stroke-linejoin="round" stroke-width="1"/><rect width="1.522" height="1.629" transform="translate(1084.326 167.032)" fill="none" stroke="#a89374" stroke-linecap="round" stroke-linejoin="round" stroke-width="1"/><rect width="1.522" height="1.629" transform="translate(1090.818 167.032)" fill="none" stroke="#a89374" stroke-linecap="round" stroke-linejoin="round" stroke-width="1"/><path d="M1092.583,155.333a.88.88,0,0,0-.287.052,1.9,1.9,0,0,0,.069-.486,1.941,1.941,0,1,0-3.882,0h0a1.136,1.136,0,0,0-.5-.119,1.148,1.148,0,1,0,0,2.3h4.6a.872.872,0,0,0,0-1.744Z" fill="none" stroke="#a89374" stroke-linecap="round" stroke-linejoin="round" stroke-width="1"/><path d="M1087.451,160.216a.576.576,0,0,0-.2.036,1.287,1.287,0,0,0,.047-.331,1.318,1.318,0,1,0-2.636,0h0a.778.778,0,1,0-.339,1.479h3.123a.592.592,0,0,0,0-1.184Z" fill="none" stroke="#a89374" stroke-linecap="round" stroke-linejoin="round" stroke-width="1"/></g></svg>